<?xml version="1.0" encoding="UTF-8"?>
<svg version="1.1" xmlns="http://www.w3.org/2000/svg" width="339" height="166" viewBox="0 0 339 166">
<path d="M0 0 C0 1.98 0 3.96 0 6 C2.31 6 4.62 6 7 6 C7 8.97 7 11.94 7 15 C4.69 15.33 2.38 15.66 0 16 C-0.33 17.98 -0.66 19.96 -1 22 C-3.97 22 -6.94 22 -10 22 C-10.495 20.515 -10.495 20.515 -11 19 C-21.05164235 29.11446511 -26.74156411 42.17626616 -32.5871582 54.97924805 C-32.98765381 55.84590088 -33.38814941 56.71255371 -33.80078125 57.60546875 C-34.15309814 58.38043701 -34.50541504 59.15540527 -34.8684082 59.95385742 C-36.03526689 62.06376954 -37.15256977 63.45883305 -39 65 C-41.375 65.5625 -41.375 65.5625 -44 65 C-45.97301727 63.14525625 -47.39105294 61.20655596 -49 59 C-49.21914062 59.66386719 -49.43828125 60.32773438 -49.6640625 61.01171875 C-51.82563963 67.03074449 -53.62848077 70.45708306 -59 74 C-63.9507603 75.65025343 -68.28075409 75.8413331 -72.9375 73.5625 C-75 72 -75 72 -76 71 C-76.375 68.25 -76.375 68.25 -76 65 C-73.5 62.125 -73.5 62.125 -71 60 C-69 62 -69 62 -69 66 C-65.535 65.505 -65.535 65.505 -62 65 C-60.00214565 60.8794254 -59.82164485 57.54805635 -60 53 C-61.19625 52.7525 -62.3925 52.505 -63.625 52.25 C-69.42012102 50.79352711 -73.76532671 48.08054664 -77 43 C-77.94921875 39.984375 -77.94921875 39.984375 -78.6875 36.75 C-78.93886719 35.67234375 -79.19023438 34.5946875 -79.44921875 33.484375 C-79.63097656 32.66453125 -79.81273437 31.8446875 -80 31 C-72.9792664 31.28773498 -68.1254519 32.54747257 -62 36 C-61.67 36 -61.34 36 -61 36 C-63.88087546 33.59927045 -66.56404834 31.52708963 -70 30 C-69 28 -69 28 -66 27 C-59.80342043 26.49208364 -57.0144374 27.01124297 -52 31 C-51.21625 31.5775 -50.4325 32.155 -49.625 32.75 C-49.08875 33.1625 -48.5525 33.575 -48 34 C-47.13375 33.01 -46.2675 32.02 -45.375 31 C-38.47317262 24.09817262 -28.68727044 18.4903493 -19 17 C-18.34 17 -17.68 17 -17 17 C-16.01 16.505 -16.01 16.505 -15 16 C-15.99 15.67 -16.98 15.34 -18 15 C-18.125 11.625 -18.125 11.625 -18 8 C-16 6 -16 6 -12.875 5.875 C-11.92625 5.91625 -10.9775 5.9575 -10 6 C-10 4.02 -10 2.04 -10 0 C-3.375 -1.125 -3.375 -1.125 0 0 Z M-36 30 C-41.34417526 36.32037251 -41.34417526 36.32037251 -44 44 C-43.14209817 46.21771064 -43.14209817 46.21771064 -42 48 C-39.69569865 45.102779 -38.02415753 42.18295925 -36.375 38.875 C-33.52722397 33.53093667 -30.0249831 29.36116321 -25.85546875 24.99609375 C-23.94939789 23.13329806 -23.94939789 23.13329806 -23 21 C-27.84390427 21 -32.64152192 26.86326463 -36 30 Z M-59 39 C-58.34 42.3 -57.68 45.6 -57 49 C-56.34 48.67 -55.68 48.34 -55 48 C-54.34786708 45.97536745 -54.34786708 45.97536745 -54 44 C-54.66 44 -55.32 44 -56 44 C-56.66 42.35 -57.32 40.7 -58 39 C-58.33 39 -58.66 39 -59 39 Z M-62 47 C-61 49 -61 49 -61 49 Z " fill="#5A9549" transform="translate(139,46)"/>
<path d="M0 0 C0 1.98 0 3.96 0 6 C2.31 6 4.62 6 7 6 C7 8.97 7 11.94 7 15 C4.69 15.33 2.38 15.66 0 16 C-0.33 17.98 -0.66 19.96 -1 22 C-3.97 22 -6.94 22 -10 22 C-10.495 20.515 -10.495 20.515 -11 19 C-21.05164235 29.11446511 -26.74156411 42.17626616 -32.5871582 54.97924805 C-32.98765381 55.84590088 -33.38814941 56.71255371 -33.80078125 57.60546875 C-34.15309814 58.38043701 -34.50541504 59.15540527 -34.8684082 59.95385742 C-36.03604831 62.0651825 -37.14666047 63.46266905 -39 65 C-41.4375 65.5 -41.4375 65.5 -44 65 C-49.04283133 59.67701137 -49.04283133 59.67701137 -48.94921875 56.01171875 C-48.46406616 51.7032741 -47.91288815 47.95330218 -46 44 C-45.01 44 -44.02 44 -43 44 C-42.67 44.99 -42.34 45.98 -42 47 C-41.52691406 46.10539062 -41.05382812 45.21078125 -40.56640625 44.2890625 C-34.06543202 32.2817531 -26.6938079 23.37271395 -15 16 C-15.99 15.67 -16.98 15.34 -18 15 C-18.125 11.625 -18.125 11.625 -18 8 C-16 6 -16 6 -12.875 5.875 C-11.92625 5.91625 -10.9775 5.9575 -10 6 C-10 4.02 -10 2.04 -10 0 C-3.375 -1.125 -3.375 -1.125 0 0 Z " fill="#1265A0" transform="translate(139,46)"/>
<path d="M0 0 C3.75 0.5625 3.75 0.5625 5.25390625 2.1015625 C8.0157348 6.37209142 9.61880214 10.62636387 10.75 15.5625 C11.41 15.5625 12.07 15.5625 12.75 15.5625 C12.92015625 14.98242188 13.0903125 14.40234375 13.265625 13.8046875 C14.83097511 8.75893129 16.59684491 4.80294994 19.75 0.5625 C22.39 0.8925 25.03 1.2225 27.75 1.5625 C27.75 9.8125 27.75 18.0625 27.75 26.5625 C25.11 26.5625 22.47 26.5625 19.75 26.5625 C19.42 23.9225 19.09 21.2825 18.75 18.5625 C17.43 21.2025 16.11 23.8425 14.75 26.5625 C12.77 26.5625 10.79 26.5625 8.75 26.5625 C7.43 23.9225 6.11 21.2825 4.75 18.5625 C4.42 21.2025 4.09 23.8425 3.75 26.5625 C1.11 26.5625 -1.53 26.5625 -4.25 26.5625 C-4.27886751 22.41668113 -4.29675327 18.27088784 -4.3125 14.125 C-4.32087891 12.94099609 -4.32925781 11.75699219 -4.33789062 10.53710938 C-4.34111328 9.41240234 -4.34433594 8.28769531 -4.34765625 7.12890625 C-4.35289307 6.08677979 -4.35812988 5.04465332 -4.36352539 3.97094727 C-4.18966547 0.28249976 -3.75651603 0.65016624 0 0 Z " fill="#134C76" transform="translate(154.25,70.4375)"/>
<path d="M0 0 C0 1.98 0 3.96 0 6 C2.31 6 4.62 6 7 6 C7 8.97 7 11.94 7 15 C4.69 15.33 2.38 15.66 0 16 C-0.33 17.98 -0.66 19.96 -1 22 C-3.97 22 -6.94 22 -10 22 C-10 20.35 -10 18.7 -10 17 C-14.62219467 19.45259309 -18.41792377 22.07611841 -22.30859375 25.56640625 C-24 27 -24 27 -27.125 28.9375 C-30.75271982 31.53999466 -32.56510514 34.27604315 -35 38 C-35 33.23040102 -32.05016974 30.49835794 -29 27 C-24.65601093 22.7169792 -20.30735708 19.03144297 -15 16 C-15.99 15.67 -16.98 15.34 -18 15 C-18.125 11.625 -18.125 11.625 -18 8 C-16 6 -16 6 -12.875 5.875 C-11.92625 5.91625 -10.9775 5.9575 -10 6 C-10 4.02 -10 2.04 -10 0 C-3.375 -1.125 -3.375 -1.125 0 0 Z " fill="#2293BC" transform="translate(139,46)"/>
<path d="M0 0 C4.59932477 2.17202458 5.86047992 7.93743422 7.55859375 12.40966797 C7.99945313 13.48539063 8.4403125 14.56111328 8.89453125 15.66943359 C12.05859375 23.49606645 12.05859375 23.49606645 12.05859375 25.97216797 C10.77984375 26.03404297 9.50109375 26.09591797 8.18359375 26.15966797 C7.10464844 26.211875 7.10464844 26.211875 6.00390625 26.26513672 C5.36195313 26.16845703 4.72 26.07177734 4.05859375 25.97216797 C3.39859375 24.98216797 2.73859375 23.99216797 2.05859375 22.97216797 C-0.36662119 22.39027531 -0.36662119 22.39027531 -3.06640625 22.28466797 C-3.97648437 22.21892578 -4.8865625 22.15318359 -5.82421875 22.08544922 C-6.52289063 22.04806641 -7.2215625 22.01068359 -7.94140625 21.97216797 C-8.27140625 23.29216797 -8.60140625 24.61216797 -8.94140625 25.97216797 C-11.58140625 25.97216797 -14.22140625 25.97216797 -16.94140625 25.97216797 C-16.33256901 20.24909789 -14.24432482 15.39788554 -12.00390625 10.15966797 C-11.64361328 9.28890625 -11.28332031 8.41814453 -10.91210938 7.52099609 C-10.56212891 6.6940625 -10.21214844 5.86712891 -9.8515625 5.01513672 C-9.53324463 4.26256592 -9.21492676 3.50999512 -8.88696289 2.73461914 C-6.98917594 -0.80272245 -3.69394917 -0.52186217 0 0 Z M-2.94140625 9.97216797 C-3.60140625 11.95216797 -4.26140625 13.93216797 -4.94140625 15.97216797 C-3.29140625 15.97216797 -1.64140625 15.97216797 0.05859375 15.97216797 C-0.60140625 13.99216797 -1.26140625 12.01216797 -1.94140625 9.97216797 C-2.27140625 9.97216797 -2.60140625 9.97216797 -2.94140625 9.97216797 Z " fill="#156CA6" transform="translate(267.94140625,71.02783203125)"/>
<path d="M0 0 C5.75 -0.125 5.75 -0.125 8 1 C8.92262209 3.13841381 9.7656399 5.3116081 10.5625 7.5 C11.77617787 11.54130981 11.77617787 11.54130981 14 15 C14.41958984 13.62714844 14.41958984 13.62714844 14.84765625 12.2265625 C18.07220087 2.66698006 18.07220087 2.66698006 20.8203125 0.69140625 C23.21274803 0.04574896 25.53175555 0 28 0 C27.39038113 3.46528304 26.49835807 6.56534181 25.1875 9.828125 C24.65769531 11.15070313 24.65769531 11.15070313 24.1171875 12.5 C23.74851563 13.4075 23.37984375 14.315 23 15.25 C22.44699219 16.63445312 22.44699219 16.63445312 21.8828125 18.046875 C19.13585283 24.86414717 19.13585283 24.86414717 18 26 C16.48071962 26.07179964 14.95832518 26.08392007 13.4375 26.0625 C12.61121094 26.05347656 11.78492188 26.04445313 10.93359375 26.03515625 C9.97646484 26.01775391 9.97646484 26.01775391 9 26 C7.29680933 22.23605994 5.61519123 18.46286675 3.9375 14.6875 C3.20950195 13.0797168 3.20950195 13.0797168 2.46679688 11.43945312 C1.78520508 9.89741211 1.78520508 9.89741211 1.08984375 8.32421875 C0.45357056 6.9024231 0.45357056 6.9024231 -0.19555664 5.4519043 C-1 3 -1 3 0 0 Z " fill="#146BA6" transform="translate(184,71)"/>
<path d="M0 0 C1.98 0 3.96 0 6 0 C12 11.73786408 12 11.73786408 12 16 C12.66 16 13.32 16 14 16 C14.29003906 15.00419922 14.29003906 15.00419922 14.5859375 13.98828125 C17.50485921 4.08995764 17.50485921 4.08995764 19 1 C21.70879335 -0.35439668 24.00933268 -0.06501451 27 0 C28 2 28 2 27.19555664 4.43017578 C26.77137451 5.4251709 26.34719238 6.42016602 25.91015625 7.4453125 C25.45576172 8.52167969 25.00136719 9.59804687 24.53320312 10.70703125 C24.04787109 11.83496094 23.56253906 12.96289062 23.0625 14.125 C22.34030273 15.82849609 22.34030273 15.82849609 21.60351562 17.56640625 C20.40924514 20.3806278 19.20780876 23.19156835 18 26 C15.03 26 12.06 26 9 26 C-1.34166008 5.93717945 -1.34166008 5.93717945 -0.59765625 1.71875 C-0.40042969 1.1515625 -0.20320312 0.584375 0 0 Z " fill="#136CA6" transform="translate(224,71)"/>
<path d="M0 0 C-3.4783937 2.62654219 -6.37973643 4.75189457 -10.4375 6.375 C-22.65962297 11.95000346 -28.41068628 23.03500352 -33 35 C-35.71489362 41.85744681 -35.71489362 41.85744681 -38 43 C-39.08788558 38.35176162 -39.15979856 36.03562469 -37.125 31.6875 C-36.15217854 29.43703696 -36.15217854 29.43703696 -36 27 C-39.13775936 20.04850097 -44.14017169 15.18492029 -51 12 C-50 10 -50 10 -47 9 C-40.80342043 8.49208364 -38.0144374 9.01124297 -33 13 C-32.21625 13.5775 -31.4325 14.155 -30.625 14.75 C-30.08875 15.1625 -29.5525 15.575 -29 16 C-28.13375 15.01 -27.2675 14.02 -26.375 13 C-22.90784532 9.51866473 -19.17595057 7.10055105 -14.9375 4.6875 C-14.3482373 4.35041016 -13.75897461 4.01332031 -13.15185547 3.66601562 C-3.42180561 -1.7109028 -3.42180561 -1.7109028 0 0 Z " fill="#7DB046" transform="translate(120,64)"/>
<path d="M0 0 C0.66 0.33 1.32 0.66 2 1 C0.989375 1.78375 -0.02125 2.5675 -1.0625 3.375 C-6.66177289 8.1548671 -10.86482875 14.36261305 -14 21 C-14.66 21 -15.32 21 -16 21 C-16.23074219 22.27875 -16.46148437 23.5575 -16.69921875 24.875 C-17.02777658 26.58350073 -17.35725284 28.29182501 -17.6875 30 C-17.83638672 30.83917969 -17.98527344 31.67835937 -18.13867188 32.54296875 C-19.49181805 39.38829648 -21.88897033 45.16347295 -27.125 49.9375 C-30.21056206 51.68598516 -32.71194578 52.1194763 -36.1875 52.0625 C-37.445625 52.041875 -38.70375 52.02125 -40 52 C-40.33 51.34 -40.66 50.68 -41 50 C-39.783125 49.505 -38.56625 49.01 -37.3125 48.5 C-33.12393526 46.43157297 -31.34054486 44.08342898 -29.203125 40 C-28 38 -28 38 -26.0078125 36.16796875 C-23.44985764 33.40597468 -22.73669089 30.89592916 -21.625 27.3125 C-17.85827713 16.2642095 -11.66317583 7.7801044 -2.125 0.9375 C-1.073125 0.4734375 -1.073125 0.4734375 0 0 Z " fill="#368247" transform="translate(109,69)"/>
<path d="M0 0 C2.64 0 5.28 0 8 0 C8.14584064 3.22868746 8.23424106 6.45652365 8.3125 9.6875 C8.35439453 10.59951172 8.39628906 11.51152344 8.43945312 12.45117188 C8.52307282 17.05025518 8.51566512 19.28364845 5.76171875 23.109375 C2.20700582 25.54287013 0.32683823 25.67211029 -3.84375 25.421875 C-7.14144631 24.77667355 -8.82157423 23.51880479 -11 21 C-11.875 18.3125 -11.875 18.3125 -12 16 C-11 15 -11 15 -8.0625 14.75 C-7.051875 14.8325 -6.04125 14.915 -5 15 C-4.01 16.485 -4.01 16.485 -3 18 C-2.34 18 -1.68 18 -1 18 C-0.505 9.09 -0.505 9.09 0 0 Z " fill="#114A74" transform="translate(138,72)"/>
<path d="M0 0 C2.80482612 9.99219304 2.80482612 9.99219304 2 15 C-0.39450557 18.66064139 -2.96251869 22.33746237 -7.234375 23.7265625 C-7.81703125 23.81679687 -8.3996875 23.90703125 -9 24 C-12.00221381 20.45192913 -13.38197435 18.22023358 -13.0625 13.5 C-12.11296041 7.7446274 -9.18476783 4.92773632 -4.875 1.125 C-3 0 -3 0 0 0 Z " fill="#77AD44" transform="translate(98,54)"/>
<path d="M0 0 C11.53245501 -0.27458226 11.53245501 -0.27458226 15 2 C16.41441874 4.82883747 16.31900332 6.87376745 16 10 C14.4375 11.875 14.4375 11.875 12 13 C8.25 13.1875 8.25 13.1875 5 13 C5.185625 13.804375 5.37125 14.60875 5.5625 15.4375 C5.706875 16.283125 5.85125 17.12875 6 18 C5.67 18.33 5.34 18.66 5 19 C3.35 19 1.7 19 0 19 C0 12.73 0 6.46 0 0 Z M5 5 C5 5.99 5 6.98 5 8 C6.65 8 8.3 8 10 8 C10 7.01 10 6.02 10 5 C8.35 5 6.7 5 5 5 Z " fill="#146AA2" transform="translate(211,102)"/>
<path d="M0 0 C2.64 0 5.28 0 8 0 C8 8.25 8 16.5 8 25 C5.69 25 3.38 25 1 25 C0 24 0 24 -0.11352539 21.68334961 C-0.10828857 20.68311768 -0.10305176 19.68288574 -0.09765625 18.65234375 C-0.09443359 17.57275391 -0.09121094 16.49316406 -0.08789062 15.38085938 C-0.07951172 14.24455078 -0.07113281 13.10824219 -0.0625 11.9375 C-0.05798828 10.79732422 -0.05347656 9.65714844 -0.04882812 8.48242188 C-0.03699747 5.65489649 -0.0205141 2.8274736 0 0 Z " fill="#136CA5" transform="translate(213,72)"/>
<path d="M0 0 C0.66 0.66 1.32 1.32 2 2 C1.61070313 2.50144531 1.22140625 3.00289063 0.8203125 3.51953125 C-5.5148903 12.08811199 -10.17858181 21.52638737 -15 31 C-15.99 31 -16.98 31 -18 31 C-22.06153846 24.84615385 -22.06153846 24.84615385 -21.75 20.5625 C-21.5025 19.716875 -21.255 18.87125 -21 18 C-20.01 18 -19.02 18 -18 18 C-17.67 18.99 -17.34 19.98 -17 21 C-16.69707031 20.40832031 -16.39414063 19.81664063 -16.08203125 19.20703125 C-13.53404178 14.40113111 -11.0854823 10.67693407 -7 7 C-6.113125 6.113125 -5.22625 5.22625 -4.3125 4.3125 C-2.875 2.875 -1.4375 1.4375 0 0 Z " fill="#1E8AC2" transform="translate(114,72)"/>
<path d="M0 0 C11.5653897 0.85336856 11.5653897 0.85336856 15 3 C16.3125 5.625 16.3125 5.625 17 8 C15.68 8.99 14.36 9.98 13 11 C13.33 12.32 13.66 13.64 14 15 C12.375 16.1875 12.375 16.1875 10 17 C7 16.375 7 16.375 4 14 C2.03787738 9.67249642 0 4.80995127 0 0 Z " fill="#73AA45" transform="translate(59,77)"/>
<path d="M0 0 C2.5 0.125 2.5 0.125 3.5 1.125 C3.57244053 3.14464199 3.58377188 5.16667124 3.5625 7.1875 C3.55347656 8.29222656 3.54445312 9.39695312 3.53515625 10.53515625 C3.52355469 11.38980469 3.51195312 12.24445313 3.5 13.125 C6.14 13.455 8.78 13.785 11.5 14.125 C11.17 15.775 10.84 17.425 10.5 19.125 C6.21 19.125 1.92 19.125 -2.5 19.125 C-3.17150565 13.08144913 -3.72112892 7.20604526 -3.5 1.125 C-2.5 0.125 -2.5 0.125 0 0 Z " fill="#116AA2" transform="translate(198.5,101.875)"/>
<path d="M0 0 C3.14344435 1.74635797 5.46862726 3.46862726 8 6 C7.67800066 9.97132519 6.16420003 12.70665213 4 16 C0.53688175 14.84562725 0.19172001 14.12735136 -1.75 11.1875 C-4.70012911 7.05880173 -7.45489179 5.18165194 -12 3 C-9.88261034 -1.23477932 -4.18071943 -0.5927296 0 0 Z " fill="#1C6F9F" transform="translate(81,73)"/>
<path d="M0 0 C1.65 0 3.3 0 5 0 C5 4.62 5 9.24 5 14 C7.64 14 10.28 14 13 14 C13.5625 15.9375 13.5625 15.9375 14 18 C13 19 13 19 10.05859375 19.09765625 C8.86363281 19.08605469 7.66867188 19.07445313 6.4375 19.0625 C4.64119141 19.04896484 4.64119141 19.04896484 2.80859375 19.03515625 C1.88175781 19.02355469 0.95492187 19.01195313 0 19 C-0.19534474 16.58373582 -0.38153404 14.16734771 -0.5625 11.75 C-0.61857422 11.06808594 -0.67464844 10.38617188 -0.73242188 9.68359375 C-0.98186254 6.2579419 -1.13879745 3.27298823 0 0 Z " fill="#146CA4" transform="translate(181,102)"/>
<path d="M0 0 C0.58201172 0.73669922 0.58201172 0.73669922 1.17578125 1.48828125 C3.61211696 3.50725753 5.06930672 3.30898805 8.1875 3.1875 C9.08855469 3.16042969 9.98960937 3.13335937 10.91796875 3.10546875 C11.60503906 3.07066406 12.29210937 3.03585938 13 3 C13 4.32 13 5.64 13 7 C10.69 7.33 8.38 7.66 6 8 C5.67 9.98 5.34 11.96 5 14 C2.03 14 -0.94 14 -4 14 C-4.125 9.25 -4.125 9.25 -3 7 C-3.66 6.67 -4.32 6.34 -5 6 C-4.67 4.68 -4.34 3.36 -4 2 C-2.68 2 -1.36 2 0 2 C0 1.34 0 0.68 0 0 Z " fill="#478C4B" transform="translate(133,54)"/>
<path d="M0 0 C0 1.98 0 3.96 0 6 C2.31 6 4.62 6 7 6 C7 7.65 7 9.3 7 11 C5.20991533 11.22151549 3.41781838 11.42682213 1.625 11.625 C0.62726563 11.74101563 -0.37046875 11.85703125 -1.3984375 11.9765625 C-2.25695312 11.98429687 -3.11546875 11.99203125 -4 12 C-4.66 11.34 -5.32 10.68 -6 10 C-7.32 10 -8.64 10 -10 10 C-10 6.7 -10 3.4 -10 0 C-3.375 -1.125 -3.375 -1.125 0 0 Z " fill="#48B5D6" transform="translate(139,46)"/>
<path d="M0 0 C-1.35101873 2.88131956 -2.92723149 5.31819785 -4.8125 7.875 C-8.22201229 12.86068585 -9.94620228 18.12446054 -11.7265625 23.86328125 C-13.04057437 27.09994239 -14.36946427 28.75239035 -17 31 C-18.32152306 25.11321548 -17.8741103 22.13233982 -15 17 C-14.01 16.67 -13.02 16.34 -12 16 C-11.22971628 14.12786981 -11.22971628 14.12786981 -10.75 11.875 C-9.34984005 7.19532102 -5.58308108 0 0 0 Z " fill="#6AA544" transform="translate(99,76)"/>
<path d="M0 0 C0.33 0.66 0.66 1.32 1 2 C2.65 1.67 4.3 1.34 6 1 C6.66 1.99 7.32 2.98 8 4 C9.65 3.67 11.3 3.34 13 3 C8.45454545 11.18181818 8.45454545 11.18181818 3.75 12.75 C2.88375 12.87375 2.88375 12.87375 2 13 C-1.18923033 8.81413519 -2.50423019 6.29441695 -2 1 C-1.34 0.67 -0.68 0.34 0 0 Z " fill="#5D9744" transform="translate(87,65)"/>
<path d="M0 0 C0.66 0.33 1.32 0.66 2 1 C0.4840625 2.175625 0.4840625 2.175625 -1.0625 3.375 C-6.66177289 8.1548671 -10.86482875 14.36261305 -14 21 C-14.66 21 -15.32 21 -16 21 C-16.33 22.65 -16.66 24.3 -17 26 C-18.32 26.33 -19.64 26.66 -21 27 C-18.11350886 16.06171778 -11.38901159 7.54329713 -2.1875 1 C-1.465625 0.67 -0.74375 0.34 0 0 Z " fill="#478D46" transform="translate(109,69)"/>
<path d="M0 0 C2 2 2 2 2 6 C2.99 6.33 3.98 6.66 5 7 C4.01 7.495 4.01 7.495 3 8 C3 8.66 3 9.32 3 10 C4.98 9.01 6.96 8.02 9 7 C7.99382318 9.67576692 7.45785454 10.7785108 4.8359375 12.046875 C4.02382812 12.27890625 3.21171875 12.5109375 2.375 12.75 C1.14910156 13.11351563 1.14910156 13.11351563 -0.1015625 13.484375 C-0.72804688 13.65453125 -1.35453125 13.8246875 -2 14 C-4.3072608 11.92591982 -4.94747092 11.3020422 -5.5 8.125 C-4.84622973 4.03893584 -3.09161442 2.62787226 0 0 Z " fill="#6CA346" transform="translate(68,106)"/>
<path d="M0 0 C6.12913259 -0.4226988 9.04691633 -0.00963916 14 4 C14.66 4.66 15.32 5.32 16 6 C15.625 8.625 15.625 8.625 15 11 C14.01 11 13.02 11 12 11 C10.81514556 9.51893195 9.63268704 8.03574653 8.47265625 6.53515625 C6.03450591 3.99353003 3.28745143 3.16027697 0 2 C0 1.34 0 0.68 0 0 Z " fill="#2093C4" transform="translate(73,73)"/>
<path d="M0 0 C5.75 -0.125 5.75 -0.125 8 1 C8.95461207 3.0480768 9.81606154 5.14013713 10.625 7.25 C11.07101563 8.38953125 11.51703125 9.5290625 11.9765625 10.703125 C12.91231168 13.71752314 13.22276087 15.88134783 13 19 C11.36457914 15.79029551 9.85968003 12.53192428 8.375 9.25 C7.92898437 8.26515625 7.48296875 7.2803125 7.0234375 6.265625 C6.51683594 5.14414063 6.51683594 5.14414063 6 4 C5.01 4 4.02 4 3 4 C3.66 6.31 4.32 8.62 5 11 C4.01 11.495 4.01 11.495 3 12 C2.30062798 10.5682384 1.61587282 9.12932968 0.9375 7.6875 C0.55464844 6.88699219 0.17179688 6.08648437 -0.22265625 5.26171875 C-1 3 -1 3 0 0 Z " fill="#0F669E" transform="translate(184,71)"/>
<path d="M0 0 C0.94875 0.04125 1.8975 0.0825 2.875 0.125 C2.97265625 6.27734375 2.97265625 6.27734375 2.875 8.125 C1.875 9.125 1.875 9.125 -1.6875 9.1875 C-2.821875 9.166875 -3.95625 9.14625 -5.125 9.125 C-5.25 5.75 -5.25 5.75 -5.125 2.125 C-3.125 0.125 -3.125 0.125 0 0 Z " fill="#2C7D53" transform="translate(126.125,51.875)"/>
<path d="M0 0 C1.32 0.66 2.64 1.32 4 2 C4 2.99 4 3.98 4 5 C4.31669821 7.33564933 4.64820803 9.6693782 5 12 C-4.59453303 9.10933941 -4.59453303 9.10933941 -8 6 C-7.67 5.34 -7.34 4.68 -7 4 C-6.071875 4.5259375 -6.071875 4.5259375 -5.125 5.0625 C-4.073125 5.5265625 -4.073125 5.5265625 -3 6 C-2.34 5.67 -1.68 5.34 -1 5 C-0.34444881 2.47266765 -0.34444881 2.47266765 0 0 Z " fill="#518E43" transform="translate(73,87)"/>
<path d="M0 0 C0.38800781 0.49113281 0.77601563 0.98226562 1.17578125 1.48828125 C3.61211696 3.50725753 5.06930672 3.30898805 8.1875 3.1875 C9.08855469 3.16042969 9.98960937 3.13335937 10.91796875 3.10546875 C11.60503906 3.07066406 12.29210937 3.03585938 13 3 C13 4.32 13 5.64 13 7 C10.36 7 7.72 7 5 7 C4.67 8.32 4.34 9.64 4 11 C4 10.34 4 9.68 4 9 C3.34 9 2.68 9 2 9 C1.67 7.35 1.34 5.7 1 4 C0.34 4 -0.32 4 -1 4 C-0.67 2.68 -0.34 1.36 0 0 Z " fill="#6EAB57" transform="translate(133,54)"/>
<path d="M0 0 C0.66 0 1.32 0 2 0 C2 2.64 2 5.28 2 8 C5.63 8 9.26 8 13 8 C13 7.01 13 6.02 13 5 C13.66 5 14.32 5 15 5 C14.67 6.65 14.34 8.3 14 10 C9.71 10 5.42 10 1 10 C0.67 6.7 0.34 3.4 0 0 Z " fill="#1B70A8" transform="translate(195,111)"/>
<path d="M0 0 C0.2475 0.53625 0.495 1.0725 0.75 1.625 C2.32341984 4.6144977 3.93100487 7.32247689 6 10 C7.32 10 8.64 10 10 10 C10.66 8.68 11.32 7.36 12 6 C12.66 6 13.32 6 14 6 C12.92598892 8.91517292 12.22189824 10.77810176 10 13 C7.625 13.4375 7.625 13.4375 5 13 C0.82418332 8.5921935 -0.12996604 5.97843791 0 0 Z " fill="#135888" transform="translate(90,98)"/>
<path d="M0 0 C0.66 0.33 1.32 0.66 2 1 C1.52949219 1.44730469 1.05898437 1.89460938 0.57421875 2.35546875 C-2.89122883 5.72046857 -5.57667077 8.79105976 -8 13 C-8.66 13 -9.32 13 -10 13 C-10.2421875 10.734375 -10.2421875 10.734375 -10 8 C-8.3203125 6.015625 -8.3203125 6.015625 -6.125 4.25 C-5.04605469 3.36054687 -5.04605469 3.36054687 -3.9453125 2.453125 C-2 1 -2 1 0 0 Z " fill="#08548A" transform="translate(128,62)"/>
<path d="M0 0 C0.66 0.33 1.32 0.66 2 1 C-1.50830973 5.18344837 -5.08406729 9.18711815 -9 13 C-9.763125 13.763125 -10.52625 14.52625 -11.3125 15.3125 C-12.1478125 16.1478125 -12.1478125 16.1478125 -13 17 C-11.59284249 12.7402895 -9.54513289 10.08008578 -6.5 6.8125 C-5.7059375 5.95269531 -4.911875 5.09289062 -4.09375 4.20703125 C-2.7470681 2.78748783 -1.38359237 1.38359237 0 0 Z " fill="#2F9ABC" transform="translate(116,67)"/>
<path d="M0 0 C-1.21670529 2.7652393 -2.75429298 5.25053897 -4.4375 7.75 C-4.84871094 8.36359375 -5.25992188 8.9771875 -5.68359375 9.609375 C-6.11800781 10.06828125 -6.55242187 10.5271875 -7 11 C-7.99 11 -8.98 11 -10 11 C-9.42380903 7.43235179 -8.13030516 5.74840503 -5.5625 3.25 C-4.94503906 2.63640625 -4.32757813 2.0228125 -3.69140625 1.390625 C-2 0 -2 0 0 0 Z " fill="#7FB63E" transform="translate(99,76)"/>
<path d="M0 0 C1.98 0 3.96 0 6 0 C5.67 1.65 5.34 3.3 5 5 C3.02 5 1.04 5 -1 5 C-0.67 3.35 -0.34 1.7 0 0 Z " fill="#1D6EA0" transform="translate(123,52)"/>
<path d="M0 0 C4.3890815 0.51035831 7.33708062 1.52214277 11 4 C10.01 5.485 10.01 5.485 9 7 C8.34 6.34 7.68 5.68 7 5 C5.03511169 4.11221308 5.03511169 4.11221308 2.875 3.375 C2.15054688 3.11460938 1.42609375 2.85421875 0.6796875 2.5859375 C0.12539062 2.39257812 -0.42890625 2.19921875 -1 2 C-0.67 1.34 -0.34 0.68 0 0 Z " fill="#106493" transform="translate(70,74)"/>
<path d="M0 0 C0.99 0 1.98 0 3 0 C3 0.66 3 1.32 3 2 C3.66 2 4.32 2 5 2 C5.33 3.65 5.66 5.3 6 7 C6.66 7 7.32 7 8 7 C8 7.66 8 8.32 8 9 C7.01 9 6.02 9 5 9 C5 8.34 5 7.68 5 7 C4.34 7 3.68 7 3 7 C3 6.01 3 5.02 3 4 C1.68 4.33 0.36 4.66 -1 5 C-0.67 3.35 -0.34 1.7 0 0 Z " fill="#589C50" transform="translate(129,56)"/>
<path d="M0 0 C0.33 0.99 0.66 1.98 1 3 C-0.62339805 4.70884005 -2.29319053 6.37446717 -4 8 C-4.66 8 -5.32 8 -6 8 C-6 6.02 -6 4.04 -6 2 C-4.02 1.34 -2.04 0.68 0 0 Z " fill="#468742" transform="translate(97,69)"/>
<path d="M0 0 C0.33 0.66 0.66 1.32 1 2 C3.02463255 2.65213292 3.02463255 2.65213292 5 3 C4.67 4.98 4.34 6.96 4 9 C2.68 9 1.36 9 0 9 C0 6.03 0 3.06 0 0 Z " fill="#36A0C5" transform="translate(129,47)"/>
<path d="M0 0 C1.07033136 3.21822604 0.95795392 5.03142433 -0.25 8.1875 C-0.62898438 9.22970703 -0.62898438 9.22970703 -1.015625 10.29296875 C-2 12 -2 12 -5 13 C-5.75 11.25 -5.75 11.25 -6 9 C-4.71182656 7.62298702 -3.37195574 6.29355827 -2 5 C-0.74563813 2.36777038 -0.74563813 2.36777038 0 0 Z " fill="#5F9B5E" transform="translate(89,80)"/>
<path d="M0 0 C1.1875 1.625 1.1875 1.625 2 4 C0.625 7.25 0.625 7.25 -1 10 C-1.99 9.01 -2.98 8.02 -4 7 C-2.79618552 4.50638429 -1.54571278 2.31856917 0 0 Z " fill="#0F5D95" transform="translate(117,71)"/>
<path d="M0 0 C0 2.97 0 5.94 0 9 C-2.79872437 6.47211993 -4.45773019 4.79588866 -5 1 C-1.125 0 -1.125 0 0 0 Z " fill="#47864E" transform="translate(90,69)"/>
<path d="M0 0 C0.66 0 1.32 0 2 0 C0.60364382 3.37452744 -0.8606353 5.11638118 -4 7 C-6.75 7.6875 -6.75 7.6875 -9 8 C-9 7.01 -9 6.02 -9 5 C-8.071875 4.731875 -7.14375 4.46375 -6.1875 4.1875 C-3.1688359 3.06289965 -2.0844857 2.29293427 0 0 Z " fill="#287447" transform="translate(84,113)"/>
<path d="M0 0 C2.97 0.495 2.97 0.495 6 1 C5.67 1.556875 5.34 2.11375 5 2.6875 C3.8690399 5.30284522 3.84337026 7.1806646 4 10 C3.34 9.67 2.68 9.34 2 9 C1.3671875 6.93359375 1.3671875 6.93359375 0.875 4.4375 C0.70742188 3.61121094 0.53984375 2.78492187 0.3671875 1.93359375 C0.24601562 1.29550781 0.12484375 0.65742187 0 0 Z " fill="#8FB54A" transform="translate(59,77)"/>
<path d="M0 0 C1 3 1 3 -0.1875 6.0625 C-2.01178206 9.01909506 -2.75730189 9.98665684 -6 11 C-6.99 11 -7.98 11 -9 11 C-9 10.34 -9 9.68 -9 9 C-8.071875 8.62875 -7.14375 8.2575 -6.1875 7.875 C-2.4739697 5.69057041 -1.57312496 3.93281241 0 0 Z " fill="#4E8B46" transform="translate(80,105)"/>
<path d="M0 0 C0.66 0.66 1.32 1.32 2 2 C0 5 0 5 -2.0625 5.5 C-2.701875 5.665 -3.34125 5.83 -4 6 C-4.33 6.99 -4.66 7.98 -5 9 C-4.50769231 3.46153846 -4.50769231 3.46153846 -1.9375 1.125 C-1.298125 0.75375 -0.65875 0.3825 0 0 Z " fill="#77A149" transform="translate(68,106)"/>
<path d="M0 0 C-1.12073862 0.83905565 -2.24674547 1.67107831 -3.375 2.5 C-4.00148438 2.9640625 -4.62796875 3.428125 -5.2734375 3.90625 C-7 5 -7 5 -9 5 C-9.33 4.01 -9.66 3.02 -10 2 C-8.71211992 1.46987262 -7.41953322 0.9511671 -6.125 0.4375 C-5.40570313 0.14746094 -4.68640625 -0.14257812 -3.9453125 -0.44140625 C-2 -1 -2 -1 0 0 Z " fill="#52996A" transform="translate(120,64)"/>
<path d="M0 0 C0.99 0 1.98 0 3 0 C3 4.29 3 8.58 3 13 C2.67 13 2.34 13 2 13 C1.66307215 11.39658445 1.33058907 9.79223445 1 8.1875 C0.814375 7.29417969 0.62875 6.40085937 0.4375 5.48046875 C0 3 0 3 0 0 Z " fill="#0C3E6D" transform="translate(173,83)"/>
<path d="M0 0 C0 0.99 0 1.98 0 3 C-1.98 3.33 -3.96 3.66 -6 4 C-6 4.66 -6 5.32 -6 6 C-6.99 6.33 -7.98 6.66 -9 7 C-7.16766277 2.5718517 -4.96404317 0 0 0 Z " fill="#8EB447" transform="translate(98,54)"/>
<path d="M0 0 C0.66 0.66 1.32 1.32 2 2 C0.68 4.97 -0.64 7.94 -2 11 C-2.66 11 -3.32 11 -4 11 C-3.52269162 9.5410574 -3.04308958 8.08286504 -2.5625 6.625 C-2.29566406 5.81289062 -2.02882812 5.00078125 -1.75390625 4.1640625 C-1 2 -1 2 0 0 Z " fill="#0D456F" transform="translate(172,73)"/>
<path d="M0 0 C0.99 0 1.98 0 3 0 C3 0.66 3 1.32 3 2 C5.31 2 7.62 2 10 2 C10 2.33 10 2.66 10 3 C6.37 3.33 2.74 3.66 -1 4 C-0.67 2.68 -0.34 1.36 0 0 Z " fill="#45A6BA" transform="translate(136,54)"/>
<path d="M0 0 C0.66 0 1.32 0 2 0 C2.99 2.97 3.98 5.94 5 9 C4.34 9 3.68 9 3 9 C0 3.375 0 3.375 0 0 Z " fill="#0E669D" transform="translate(190,88)"/>
<path d="M0 0 C0.66 0 1.32 0 2 0 C5 5.625 5 5.625 5 9 C4.34 9 3.68 9 3 9 C1.76078698 6.02588876 0.69941596 3.14737182 0 0 Z " fill="#0D446F" transform="translate(158,73)"/>
<path d="M0 0 C0.66 0.33 1.32 0.66 2 1 C-2.39453125 5.00390625 -2.39453125 5.00390625 -4 6 C-4.99 5.67 -5.98 5.34 -7 5 C-4.69 3.35 -2.38 1.7 0 0 Z " fill="#509348" transform="translate(109,69)"/>
<path d="M0 0 C0.99 0.33 1.98 0.66 3 1 C2.01 1.495 2.01 1.495 1 2 C1.33 2.99 1.66 3.98 2 5 C0.35 5 -1.3 5 -3 5 C-2.01 3.35 -1.02 1.7 0 0 Z " fill="#5D9844" transform="translate(70,112)"/>
<path d="M0 0 C0.99 0.33 1.98 0.66 3 1 C2.67 2.32 2.34 3.64 2 5 C0.68 4.67 -0.64 4.34 -2 4 C-2 3.01 -2 2.02 -2 1 C-1.34 0.67 -0.68 0.34 0 0 Z " fill="#408447" transform="translate(75,94)"/>
<path d="M0 0 C0.66 0.33 1.32 0.66 2 1 C-1.465 3.97 -1.465 3.97 -5 7 C-3.92643531 2.70574125 -3.4915227 2.25259529 0 0 Z " fill="#0B517B" transform="translate(128,62)"/>
</svg>
